<svg width="616" height="756" viewBox="0 0 616 756" fill="none" xmlns="http://www.w3.org/2000/svg">
<path d="M48.3174 37.4662C45.7647 37.4662 43.3166 38.4836 41.5115 40.2945C39.7065 42.1054 38.6924 44.5615 38.6924 47.1225C38.6924 49.6835 39.7065 52.1396 41.5115 53.9505C43.3166 55.7614 45.7647 56.7787 48.3174 56.7787C75.2016 56.7476 101.128 66.7904 121.016 84.9387C140.904 103.087 153.319 128.033 155.829 154.886C129.424 157.169 104.835 169.31 86.9228 188.907C69.0112 208.504 59.0815 234.13 59.0974 260.719C59.0974 319.429 106.452 328.312 164.972 328.312C200.2 328.312 231.385 325.087 250.635 309.715C250.712 318.116 252.56 326.111 255.832 333.314L185.493 383.72C166.474 368.038 141.218 360.506 116.482 360.506C89.0312 360.506 60.9262 369.796 41.5029 389.282C40.585 390.174 39.8533 391.241 39.3506 392.419C38.8479 393.598 38.5842 394.866 38.575 396.148C38.5657 397.43 38.811 398.701 39.2967 399.887C39.7823 401.073 40.4985 402.15 41.4034 403.055C42.3084 403.961 43.384 404.676 44.5675 405.16C45.751 405.644 47.0187 405.887 48.2967 405.874C49.5746 405.861 50.8372 405.593 52.0107 405.085C53.1843 404.577 54.2453 403.84 55.1319 402.917C70.1662 387.834 92.9774 379.819 116.482 379.819C140.005 379.819 162.874 387.814 178.005 402.936C179.616 404.551 181.746 405.539 184.016 405.727C186.286 405.914 188.549 405.288 190.402 403.96L266.593 349.324C267.748 350.541 268.961 351.719 270.231 352.859L138.33 564.601C137.661 565.676 137.208 566.873 137 568.124C136.791 569.375 136.83 570.654 137.114 571.89C137.398 573.126 137.922 574.293 138.656 575.325C139.39 576.358 140.319 577.235 141.391 577.907C142.463 578.579 143.656 579.033 144.903 579.242C146.15 579.452 147.425 579.413 148.657 579.128C149.888 578.843 151.052 578.317 152.081 577.581C153.11 576.844 153.985 575.912 154.654 574.837L286.536 363.075C287.826 363.616 289.154 364.118 290.482 364.562V569.719C290.482 572.28 291.496 574.736 293.302 576.547C295.107 578.358 297.555 579.375 300.107 579.375C302.66 579.375 305.108 578.358 306.913 576.547C308.718 574.736 309.732 572.28 309.732 569.719V367.517C318.754 367.373 327.618 365.121 335.621 360.941C343.624 356.76 350.545 350.766 355.836 343.434C348.694 368.27 347.847 399.73 347.847 433.952C347.847 514.292 352.467 579.375 432.547 579.375C512.627 579.375 577.5 514.292 577.5 433.952C577.5 353.612 512.627 288.529 432.547 288.529C398.533 288.529 378.147 300.271 365.923 319.931C368.142 308.041 366.622 295.754 361.572 284.77C356.522 273.785 348.193 264.648 337.738 258.623C327.284 252.598 315.22 249.983 303.218 251.14C291.217 252.298 279.87 257.17 270.751 265.083C271.875 237.95 262.591 211.415 244.81 190.939C227.028 170.463 202.101 157.602 175.156 155.002C172.649 122.988 158.196 93.1005 134.682 71.3114C111.169 49.5224 80.3265 37.4357 48.3174 37.4662ZM126.28 203.168C134.172 203.168 140.717 209.541 140.717 217.652V234.647C140.717 238.488 139.196 242.173 136.489 244.889C133.781 247.605 130.109 249.131 126.28 249.131C122.451 249.131 118.779 247.605 116.071 244.889C113.364 242.173 111.842 238.488 111.842 234.647V217.652C112.035 209.734 118.387 203.168 126.28 203.168Z" fill="#E39945"/>
<rect x="34" y="424" width="543" height="198" fill="black"/>
<path d="M82.1562 571.004L66.0234 622H23.9141L88.3086 423.484H144.91L210.945 622H169.52L152.703 571.004H82.1562ZM116.062 460.125L91.7266 539.422H142.996L117.977 460.125H116.062ZM305.008 534.09C298.445 524.793 288.191 508.25 274.246 484.461V622H235.281V423.484H269.188L329.617 509.754C337.273 520.6 347.938 537.371 361.609 560.066V423.484H400.711V622H366.531L305.008 534.09ZM577.352 456.023H523.621V622H480.828V456.023H425.047V423.484H577.352V456.023Z" fill="white"/>
<path d="M99.5547 705.027C99.5547 703.27 99.2812 701.707 98.7344 700.34C98.2266 698.973 97.3086 697.723 95.9805 696.59C94.6523 695.457 92.7773 694.363 90.3555 693.309C87.9727 692.215 84.9258 691.102 81.2148 689.969C77.1523 688.719 73.4023 687.332 69.9648 685.809C66.5664 684.246 63.5977 682.449 61.0586 680.418C58.5195 678.348 56.5469 675.984 55.1406 673.328C53.7344 670.633 53.0312 667.527 53.0312 664.012C53.0312 660.535 53.7539 657.371 55.1992 654.52C56.6836 651.668 58.7734 649.207 61.4688 647.137C64.2031 645.027 67.4258 643.406 71.1367 642.273C74.8477 641.102 78.9492 640.516 83.4414 640.516C89.7695 640.516 95.2188 641.688 99.7891 644.031C104.398 646.375 107.934 649.52 110.395 653.465C112.895 657.41 114.145 661.766 114.145 666.531H99.5547C99.5547 663.719 98.9492 661.238 97.7383 659.09C96.5664 656.902 94.7695 655.184 92.3477 653.934C89.9648 652.684 86.9375 652.059 83.2656 652.059C79.7891 652.059 76.8984 652.586 74.5938 653.641C72.2891 654.695 70.5703 656.121 69.4375 657.918C68.3047 659.715 67.7383 661.746 67.7383 664.012C67.7383 665.613 68.1094 667.078 68.8516 668.406C69.5938 669.695 70.7266 670.906 72.25 672.039C73.7734 673.133 75.6875 674.168 77.9922 675.145C80.2969 676.121 83.0117 677.059 86.1367 677.957C90.8633 679.363 94.9844 680.926 98.5 682.645C102.016 684.324 104.945 686.238 107.289 688.387C109.633 690.535 111.391 692.977 112.562 695.711C113.734 698.406 114.32 701.473 114.32 704.91C114.32 708.504 113.598 711.746 112.152 714.637C110.707 717.488 108.637 719.93 105.941 721.961C103.285 723.953 100.082 725.496 96.332 726.59C92.6211 727.645 88.4805 728.172 83.9102 728.172C79.8086 728.172 75.7656 727.625 71.7812 726.531C67.8359 725.438 64.2422 723.777 61 721.551C57.7578 719.285 55.1797 716.473 53.2656 713.113C51.3516 709.715 50.3945 705.75 50.3945 701.219H65.1016C65.1016 703.992 65.5703 706.355 66.5078 708.309C67.4844 710.262 68.832 711.863 70.5508 713.113C72.2695 714.324 74.2617 715.223 76.5273 715.809C78.832 716.395 81.293 716.688 83.9102 716.688C87.3477 716.688 90.2188 716.199 92.5234 715.223C94.8672 714.246 96.625 712.879 97.7969 711.121C98.9688 709.363 99.5547 707.332 99.5547 705.027ZM162.426 641.688V727H147.836V641.688H162.426ZM189.203 641.688V653.406H121.293V641.688H189.203ZM266.84 682V686.688C266.84 693.133 266 698.914 264.32 704.031C262.641 709.148 260.238 713.504 257.113 717.098C254.027 720.691 250.316 723.445 245.98 725.359C241.645 727.234 236.84 728.172 231.566 728.172C226.332 728.172 221.547 727.234 217.211 725.359C212.914 723.445 209.184 720.691 206.02 717.098C202.855 713.504 200.395 709.148 198.637 704.031C196.918 698.914 196.059 693.133 196.059 686.688V682C196.059 675.555 196.918 669.793 198.637 664.715C200.355 659.598 202.777 655.242 205.902 651.648C209.066 648.016 212.797 645.262 217.094 643.387C221.43 641.473 226.215 640.516 231.449 640.516C236.723 640.516 241.527 641.473 245.863 643.387C250.199 645.262 253.93 648.016 257.055 651.648C260.18 655.242 262.582 659.598 264.262 664.715C265.98 669.793 266.84 675.555 266.84 682ZM252.133 686.688V681.883C252.133 677.117 251.664 672.918 250.727 669.285C249.828 665.613 248.48 662.547 246.684 660.086C244.926 657.586 242.758 655.711 240.18 654.461C237.602 653.172 234.691 652.527 231.449 652.527C228.207 652.527 225.316 653.172 222.777 654.461C220.238 655.711 218.07 657.586 216.273 660.086C214.516 662.547 213.168 665.613 212.23 669.285C211.293 672.918 210.824 677.117 210.824 681.883V686.688C210.824 691.453 211.293 695.672 212.23 699.344C213.168 703.016 214.535 706.121 216.332 708.66C218.168 711.16 220.355 713.055 222.895 714.344C225.434 715.594 228.324 716.219 231.566 716.219C234.848 716.219 237.758 715.594 240.297 714.344C242.836 713.055 244.984 711.16 246.742 708.66C248.5 706.121 249.828 703.016 250.727 699.344C251.664 695.672 252.133 691.453 252.133 686.688ZM281.547 641.688H311.723C318.207 641.688 323.734 642.664 328.305 644.617C332.875 646.57 336.371 649.461 338.793 653.289C341.254 657.078 342.484 661.766 342.484 667.352C342.484 671.609 341.703 675.359 340.141 678.602C338.578 681.844 336.371 684.578 333.52 686.805C330.668 688.992 327.27 690.691 323.324 691.902L318.871 694.07H291.742L291.625 682.41H311.957C315.473 682.41 318.402 681.785 320.746 680.535C323.09 679.285 324.848 677.586 326.02 675.438C327.23 673.25 327.836 670.789 327.836 668.055C327.836 665.086 327.25 662.508 326.078 660.32C324.945 658.094 323.188 656.395 320.805 655.223C318.422 654.012 315.395 653.406 311.723 653.406H296.254V727H281.547V641.688ZM330.238 727L310.199 688.68L325.609 688.621L345.941 726.238V727H330.238ZM390.355 653.055L364.867 727H349.457L381.566 641.688H391.41L390.355 653.055ZM411.684 727L386.137 653.055L385.023 641.688H394.926L427.152 727H411.684ZM410.453 695.359V707.02H364.047V695.359H410.453ZM501.273 683.406V715.984C500.062 717.586 498.168 719.344 495.59 721.258C493.051 723.133 489.672 724.754 485.453 726.121C481.234 727.488 475.98 728.172 469.691 728.172C464.34 728.172 459.438 727.273 454.984 725.477C450.531 723.641 446.684 720.965 443.441 717.449C440.238 713.934 437.758 709.656 436 704.617C434.242 699.539 433.363 693.758 433.363 687.273V681.355C433.363 674.91 434.164 669.168 435.766 664.129C437.406 659.051 439.75 654.754 442.797 651.238C445.844 647.723 449.516 645.066 453.812 643.27C458.148 641.434 463.051 640.516 468.52 640.516C475.512 640.516 481.293 641.688 485.863 644.031C490.473 646.336 494.027 649.539 496.527 653.641C499.027 657.742 500.609 662.43 501.273 667.703H486.859C486.391 664.734 485.473 662.078 484.105 659.734C482.777 657.391 480.863 655.555 478.363 654.227C475.902 652.859 472.699 652.176 468.754 652.176C465.355 652.176 462.367 652.82 459.789 654.109C457.211 655.398 455.062 657.293 453.344 659.793C451.664 662.293 450.395 665.34 449.535 668.934C448.676 672.527 448.246 676.629 448.246 681.238V687.273C448.246 691.961 448.734 696.121 449.711 699.754C450.727 703.387 452.172 706.453 454.047 708.953C455.961 711.453 458.285 713.348 461.02 714.637C463.754 715.887 466.84 716.512 470.277 716.512C473.637 716.512 476.391 716.238 478.539 715.691C480.688 715.105 482.387 714.422 483.637 713.641C484.926 712.82 485.922 712.039 486.625 711.297V694.363H468.871V683.406H501.273ZM573.402 715.34V727H528.109V715.34H573.402ZM532.27 641.688V727H517.562V641.688H532.27ZM567.484 677.312V688.797H528.109V677.312H567.484ZM573.109 641.688V653.406H528.109V641.688H573.109Z" fill="#E39945"/>
</svg>
